<?xml version="1.0" encoding="iso-8859-1"?>
<!-- Generator: Adobe Illustrator 19.0.0, SVG Export Plug-In . SVG Version: 6.00 Build 0)  -->
<svg version="1.1" id="Capa_1" xmlns="http://www.w3.org/2000/svg" xmlns:xlink="http://www.w3.org/1999/xlink" x="0px" y="0px"
	 viewBox="0 0 512 512" style="enable-background:new 0 0 512 512;" xml:space="preserve">
<g>
	<g>
		<path d="M422.5,247.25c-5.675,0-11.226,0.537-16.61,1.552L345.436,85.75H293v30h31.563l10.381,28H233.299l-20.306,59H73v30h68.953
			l59.084,89h-23.301c-7.157-42.234-43.997-74.5-88.236-74.5c-49.351,0-89.5,40.149-89.5,89.5s40.149,89.5,89.5,89.5
			c44.24,0,81.079-32.266,88.236-74.5H287.29l78.472-124.881l12.007,32.384C351.027,274.748,333,303.682,333,336.75
			c0,49.351,40.149,89.5,89.5,89.5s89.5-40.149,89.5-89.5S471.851,247.25,422.5,247.25z M147.081,351.75
			c-6.665,25.57-29.952,44.5-57.581,44.5c-32.809,0-59.5-26.691-59.5-59.5c0-32.809,26.691-59.5,59.5-59.5
			c27.629,0,50.916,18.93,57.581,44.5H86v30H147.081z M422.5,396.25c-32.809,0-59.5-26.691-59.5-59.5
			c0-20.143,10.071-37.968,25.432-48.738l20.004,53.953l28.129-10.43l-20.016-53.987c1.958-0.195,3.943-0.298,5.952-0.298
			c32.809,0,59.5,26.691,59.5,59.5C482.001,369.559,455.309,396.25,422.5,396.25z"/>
	</g>
</g>
<g>
	<g>
		<rect x="389.333" y="150.006" transform="matrix(0.931 -0.3651 0.3651 0.931 -34.7971 159.4735)" width="30" height="43.504"/>
	</g>
</g>
<g>
</g>
<g>
</g>
<g>
</g>
<g>
</g>
<g>
</g>
<g>
</g>
<g>
</g>
<g>
</g>
<g>
</g>
<g>
</g>
<g>
</g>
<g>
</g>
<g>
</g>
<g>
</g>
<g>
</g>
</svg>
