<?xml version="1.0" encoding="utf-8"?>
<!-- Generator: Adobe Illustrator 23.1.0, SVG Export Plug-In . SVG Version: 6.00 Build 0)  -->
<svg version="1.1" id="Layer_1" xmlns="http://www.w3.org/2000/svg" xmlns:xlink="http://www.w3.org/1999/xlink" x="0px" y="0px"
	 viewBox="0 0 1221.37 340.5" style="enable-background:new 0 0 1221.37 340.5;" xml:space="preserve">
<style type="text/css">
	.st0{fill:#010101;}
</style>
<g>
	<g>
		<path class="st0" d="M422.5,161.5c-5.67,0-11.23,0.54-16.61,1.55L345.44,0H293v30h31.56l10.38,28H233.3l-20.31,59H73v30h68.95
			l59.08,89h-23.3c-7.16-42.23-44-74.5-88.24-74.5C40.15,161.5,0,201.65,0,251s40.15,89.5,89.5,89.5c44.24,0,81.08-32.27,88.24-74.5
			h109.55l78.47-124.88l12.01,32.38C351.03,189,333,217.93,333,251c0,49.35,40.15,89.5,89.5,89.5S512,300.35,512,251
			S471.85,161.5,422.5,161.5z M147.08,266c-6.67,25.57-29.95,44.5-57.58,44.5C56.69,310.5,30,283.81,30,251s26.69-59.5,59.5-59.5
			c27.63,0,50.92,18.93,57.58,44.5H86v30H147.08z M422.5,310.5c-32.81,0-59.5-26.69-59.5-59.5c0-20.14,10.07-37.97,25.43-48.74
			l20,53.95l28.13-10.43l-20.02-53.99c1.96-0.2,3.94-0.3,5.95-0.3c32.81,0,59.5,26.69,59.5,59.5S455.31,310.5,422.5,310.5z"/>
	</g>
</g>
<g>
	<path d="M642.87,81.93c-1.37-5.9-4.71-10.02-10.02-12.36c-2.97-1.29-6.27-1.93-9.9-1.93c-6.95,0-12.67,2.62-17.14,7.87
		c-4.47,5.24-6.71,13.13-6.71,23.65c0,10.61,2.42,18.11,7.27,22.52c4.84,4.41,10.35,6.61,16.52,6.61c6.05,0,11.02-1.74,14.88-5.21
		c3.87-3.47,6.25-8.03,7.15-13.66h-19.98V95h35.98v46.35h-11.95l-1.82-10.78c-3.48,4.08-6.6,6.96-9.38,8.63
		c-4.77,2.92-10.63,4.37-17.58,4.37c-11.45,0-20.82-3.96-28.12-11.89c-7.62-7.96-11.43-18.85-11.43-32.67
		c0-13.97,3.85-25.18,11.54-33.61s17.87-12.65,30.53-12.65c10.98,0,19.79,2.78,26.46,8.35c6.66,5.57,10.48,12.51,11.46,20.83H642.87
		z"/>
	<path d="M733.49,57.21c3.18,1.37,5.88,3.38,8.08,6.04c1.83,2.19,3.28,4.61,4.34,7.27c1.07,2.66,1.6,5.68,1.6,9.08
		c0,4.1-1.04,8.14-3.11,12.1c-2.07,3.97-5.49,6.77-10.25,8.41c3.98,1.6,6.81,3.88,8.47,6.83c1.66,2.95,2.49,7.45,2.49,13.51v5.8
		c0,3.95,0.16,6.62,0.48,8.03c0.48,2.23,1.59,3.87,3.33,4.92v2.17H729c-0.55-1.91-0.94-3.46-1.17-4.63
		c-0.47-2.42-0.72-4.9-0.76-7.44l-0.12-8.03c-0.07-5.51-1.03-9.18-2.85-11.02c-1.83-1.84-5.26-2.75-10.28-2.75h-17.63v33.87h-17.64
		V54.98h41.31C725.77,55.1,730.31,55.84,733.49,57.21z M696.19,69.98v23.2h19.42c3.86,0,6.75-0.47,8.68-1.41
		c3.41-1.64,5.12-4.88,5.12-9.73c0-5.23-1.65-8.75-4.95-10.55c-1.85-1.02-4.64-1.52-8.35-1.52H696.19z"/>
	<path d="M789.5,54.98h20.42l30.56,86.37h-19.57l-5.7-17.75H783.4l-5.85,17.75h-18.88L789.5,54.98z M788.31,108.71h22.12
		l-10.91-33.98L788.31,108.71z"/>
	<path d="M893.15,54.98h18.75l-29.45,86.37h-17.05L836.2,54.98h19.28l18.75,65.57L893.15,54.98z"/>
	<path d="M986.52,70.27h-45.7v18.34h41.95v15h-41.95v22.21h47.81v15.53h-65.45V54.98h63.34V70.27z"/>
	<path d="M1058.04,57.21c3.18,1.37,5.88,3.38,8.08,6.04c1.83,2.19,3.28,4.61,4.34,7.27c1.07,2.66,1.6,5.68,1.6,9.08
		c0,4.1-1.04,8.14-3.11,12.1c-2.07,3.97-5.49,6.77-10.25,8.41c3.98,1.6,6.81,3.88,8.47,6.83c1.66,2.95,2.49,7.45,2.49,13.51v5.8
		c0,3.95,0.16,6.62,0.48,8.03c0.48,2.23,1.59,3.87,3.33,4.92v2.17h-19.92c-0.55-1.91-0.94-3.46-1.17-4.63
		c-0.47-2.42-0.72-4.9-0.76-7.44l-0.12-8.03c-0.07-5.51-1.03-9.18-2.85-11.02c-1.83-1.84-5.26-2.75-10.28-2.75h-17.63v33.87h-17.64
		V54.98h41.31C1050.32,55.1,1054.86,55.84,1058.04,57.21z M1020.74,69.98v23.2h19.42c3.86,0,6.75-0.47,8.68-1.41
		c3.41-1.64,5.12-4.88,5.12-9.73c0-5.23-1.65-8.75-4.95-10.55c-1.85-1.02-4.64-1.52-8.35-1.52H1020.74z"/>
	<path d="M1089.35,54.98h18.05v70.84h43.12v15.53h-61.17V54.98z"/>
	<path d="M1200.92,54.98h20.45l-28.89,53.98v32.38h-18.05v-32.38l-29.88-53.98h21.27l17.93,37.62L1200.92,54.98z"/>
	<path d="M642.1,198.98h25.97v86.37h-16.82v-58.42c0-1.68,0.02-4.03,0.06-7.06c0.04-3.03,0.06-5.36,0.06-7L635,285.35h-17.54
		l-16.25-72.48c0,1.64,0.02,3.98,0.06,7c0.04,3.03,0.06,5.38,0.06,7.06v58.42h-16.82v-86.37h26.26l15.72,67.91L642.1,198.98z"/>
	<path d="M751.27,277.67c-6.52,6.72-15.96,10.08-28.3,10.08c-12.34,0-21.78-3.36-28.3-10.08c-8.75-8.24-13.12-20.12-13.12-35.62
		c0-15.82,4.37-27.69,13.12-35.62c6.52-6.72,15.96-10.08,28.3-10.08c12.34,0,21.78,3.36,28.3,10.08
		c8.71,7.93,13.07,19.8,13.07,35.62C764.34,257.55,759.98,269.43,751.27,277.67z M739.99,264.54c4.2-5.27,6.3-12.77,6.3-22.5
		c0-9.69-2.1-17.18-6.3-22.47c-4.2-5.29-9.87-7.94-17.02-7.94s-12.85,2.64-17.11,7.91c-4.26,5.27-6.39,12.77-6.39,22.5
		s2.13,17.23,6.39,22.5c4.26,5.27,9.96,7.91,17.11,7.91S735.79,269.82,739.99,264.54z"/>
	<path d="M840.86,198.98v15.29h-25.84v71.07h-18.16v-71.07H770.9v-15.29H840.86z"/>
	<path d="M915.8,277.67c-6.52,6.72-15.96,10.08-28.3,10.08c-12.34,0-21.78-3.36-28.3-10.08c-8.75-8.24-13.12-20.12-13.12-35.62
		c0-15.82,4.37-27.69,13.12-35.62c6.52-6.72,15.96-10.08,28.3-10.08c12.34,0,21.78,3.36,28.3,10.08
		c8.71,7.93,13.07,19.8,13.07,35.62C928.87,257.55,924.51,269.43,915.8,277.67z M904.52,264.54c4.2-5.27,6.3-12.77,6.3-22.5
		c0-9.69-2.1-17.18-6.3-22.47c-4.2-5.29-9.87-7.94-17.02-7.94s-12.85,2.64-17.11,7.91c-4.26,5.27-6.39,12.77-6.39,22.5
		s2.13,17.23,6.39,22.5c4.26,5.27,9.96,7.91,17.11,7.91S900.32,269.82,904.52,264.54z"/>
</g>
</svg>
